<mxfile host="Electron" agent="Mozilla/5.0 (Windows NT 10.0; Win64; x64) AppleWebKit/537.36 (KHTML, like Gecko) draw.io/26.0.4 Chrome/128.0.6613.186 Electron/32.2.5 Safari/537.36" version="26.0.4">
  <diagram name="Seite-1" id="URy74hpe6URGbZmHZ8ae">
    <mxGraphModel dx="989" dy="589" grid="1" gridSize="10" guides="1" tooltips="1" connect="1" arrows="1" fold="1" page="1" pageScale="1" pageWidth="827" pageHeight="1169" math="0" shadow="0">
      <root>
        <mxCell id="0" />
        <mxCell id="1" parent="0" />
        <mxCell id="imZxB08q8311YTtFAsqf-4" style="edgeStyle=orthogonalEdgeStyle;rounded=0;orthogonalLoop=1;jettySize=auto;html=1;entryX=0.5;entryY=0;entryDx=0;entryDy=0;" edge="1" parent="1" source="imZxB08q8311YTtFAsqf-1" target="imZxB08q8311YTtFAsqf-2">
          <mxGeometry relative="1" as="geometry" />
        </mxCell>
        <mxCell id="imZxB08q8311YTtFAsqf-1" value="" style="shape=ellipse;html=1;fillColor=strokeColor;strokeWidth=2;verticalLabelPosition=bottom;verticalAlignment=top;perimeter=ellipsePerimeter;" vertex="1" parent="1">
          <mxGeometry x="230" y="140" width="20" height="20" as="geometry" />
        </mxCell>
        <mxCell id="imZxB08q8311YTtFAsqf-6" style="edgeStyle=orthogonalEdgeStyle;rounded=0;orthogonalLoop=1;jettySize=auto;html=1;entryX=0.5;entryY=0;entryDx=0;entryDy=0;" edge="1" parent="1" source="imZxB08q8311YTtFAsqf-2" target="imZxB08q8311YTtFAsqf-5">
          <mxGeometry relative="1" as="geometry" />
        </mxCell>
        <mxCell id="imZxB08q8311YTtFAsqf-2" value="user enters login-credentials (username, passwiort)" style="rounded=1;whiteSpace=wrap;html=1;" vertex="1" parent="1">
          <mxGeometry x="170" y="200" width="140" height="60" as="geometry" />
        </mxCell>
        <mxCell id="imZxB08q8311YTtFAsqf-10" style="edgeStyle=orthogonalEdgeStyle;rounded=0;orthogonalLoop=1;jettySize=auto;html=1;entryX=0.5;entryY=0;entryDx=0;entryDy=0;" edge="1" parent="1" source="imZxB08q8311YTtFAsqf-5" target="imZxB08q8311YTtFAsqf-9">
          <mxGeometry relative="1" as="geometry" />
        </mxCell>
        <mxCell id="imZxB08q8311YTtFAsqf-13" value="[correct password]" style="edgeLabel;html=1;align=center;verticalAlign=middle;resizable=0;points=[];" vertex="1" connectable="0" parent="imZxB08q8311YTtFAsqf-10">
          <mxGeometry x="-0.0629" relative="1" as="geometry">
            <mxPoint y="-3" as="offset" />
          </mxGeometry>
        </mxCell>
        <mxCell id="imZxB08q8311YTtFAsqf-11" style="edgeStyle=orthogonalEdgeStyle;rounded=0;orthogonalLoop=1;jettySize=auto;html=1;entryX=1;entryY=0.5;entryDx=0;entryDy=0;" edge="1" parent="1" source="imZxB08q8311YTtFAsqf-5" target="imZxB08q8311YTtFAsqf-2">
          <mxGeometry relative="1" as="geometry">
            <Array as="points">
              <mxPoint x="350" y="330" />
              <mxPoint x="350" y="230" />
            </Array>
          </mxGeometry>
        </mxCell>
        <mxCell id="imZxB08q8311YTtFAsqf-12" value="[wrong password]" style="edgeLabel;html=1;align=center;verticalAlign=middle;resizable=0;points=[];" vertex="1" connectable="0" parent="imZxB08q8311YTtFAsqf-11">
          <mxGeometry x="0.2" relative="1" as="geometry">
            <mxPoint as="offset" />
          </mxGeometry>
        </mxCell>
        <mxCell id="imZxB08q8311YTtFAsqf-5" value="" style="rhombus;whiteSpace=wrap;html=1;" vertex="1" parent="1">
          <mxGeometry x="220" y="310" width="40" height="40" as="geometry" />
        </mxCell>
        <mxCell id="imZxB08q8311YTtFAsqf-15" style="edgeStyle=orthogonalEdgeStyle;rounded=0;orthogonalLoop=1;jettySize=auto;html=1;entryX=0.511;entryY=0.5;entryDx=0;entryDy=0;entryPerimeter=0;" edge="1" parent="1" target="imZxB08q8311YTtFAsqf-16">
          <mxGeometry relative="1" as="geometry">
            <mxPoint x="240" y="510" as="targetPoint" />
            <mxPoint x="240.39999999999998" y="460" as="sourcePoint" />
            <Array as="points">
              <mxPoint x="240" y="524" />
            </Array>
          </mxGeometry>
        </mxCell>
        <mxCell id="imZxB08q8311YTtFAsqf-9" value="make a reservation" style="rounded=1;whiteSpace=wrap;html=1;" vertex="1" parent="1">
          <mxGeometry x="170" y="420" width="140" height="60" as="geometry" />
        </mxCell>
        <mxCell id="imZxB08q8311YTtFAsqf-18" style="edgeStyle=orthogonalEdgeStyle;rounded=0;orthogonalLoop=1;jettySize=auto;html=1;entryX=0.5;entryY=0;entryDx=0;entryDy=0;" edge="1" parent="1" source="imZxB08q8311YTtFAsqf-16" target="imZxB08q8311YTtFAsqf-17">
          <mxGeometry relative="1" as="geometry">
            <Array as="points">
              <mxPoint x="240" y="540" />
              <mxPoint x="100" y="540" />
            </Array>
          </mxGeometry>
        </mxCell>
        <mxCell id="imZxB08q8311YTtFAsqf-20" style="edgeStyle=orthogonalEdgeStyle;rounded=0;orthogonalLoop=1;jettySize=auto;html=1;entryX=0.5;entryY=0;entryDx=0;entryDy=0;" edge="1" parent="1" source="imZxB08q8311YTtFAsqf-16" target="imZxB08q8311YTtFAsqf-19">
          <mxGeometry relative="1" as="geometry">
            <Array as="points">
              <mxPoint x="240" y="540" />
              <mxPoint x="380" y="540" />
            </Array>
          </mxGeometry>
        </mxCell>
        <mxCell id="imZxB08q8311YTtFAsqf-16" value="" style="line;strokeWidth=4;fillColor=none;align=left;verticalAlign=middle;spacingTop=-1;spacingLeft=3;spacingRight=3;rotatable=0;labelPosition=right;points=[];portConstraint=eastwest;strokeColor=inherit;" vertex="1" parent="1">
          <mxGeometry x="220" y="520" width="40" height="8" as="geometry" />
        </mxCell>
        <mxCell id="imZxB08q8311YTtFAsqf-17" value="choose start- and endstation" style="rounded=1;whiteSpace=wrap;html=1;" vertex="1" parent="1">
          <mxGeometry x="30" y="585" width="140" height="60" as="geometry" />
        </mxCell>
        <mxCell id="imZxB08q8311YTtFAsqf-25" style="edgeStyle=orthogonalEdgeStyle;rounded=0;orthogonalLoop=1;jettySize=auto;html=1;entryX=0.5;entryY=0;entryDx=0;entryDy=0;" edge="1" parent="1" source="imZxB08q8311YTtFAsqf-19" target="imZxB08q8311YTtFAsqf-24">
          <mxGeometry relative="1" as="geometry" />
        </mxCell>
        <mxCell id="imZxB08q8311YTtFAsqf-19" value="choose a car" style="rounded=1;whiteSpace=wrap;html=1;" vertex="1" parent="1">
          <mxGeometry x="310" y="585" width="140" height="60" as="geometry" />
        </mxCell>
        <mxCell id="imZxB08q8311YTtFAsqf-36" style="edgeStyle=orthogonalEdgeStyle;rounded=0;orthogonalLoop=1;jettySize=auto;html=1;entryX=0.5;entryY=0;entryDx=0;entryDy=0;" edge="1" parent="1" source="imZxB08q8311YTtFAsqf-21" target="imZxB08q8311YTtFAsqf-37">
          <mxGeometry relative="1" as="geometry">
            <mxPoint x="240" y="1050.0000000000002" as="targetPoint" />
            <Array as="points">
              <mxPoint x="240" y="990" />
              <mxPoint x="240" y="990" />
            </Array>
          </mxGeometry>
        </mxCell>
        <mxCell id="imZxB08q8311YTtFAsqf-21" value="" style="line;strokeWidth=4;fillColor=none;align=left;verticalAlign=middle;spacingTop=-1;spacingLeft=3;spacingRight=3;rotatable=0;labelPosition=right;points=[];portConstraint=eastwest;strokeColor=inherit;" vertex="1" parent="1">
          <mxGeometry x="220" y="970" width="40" height="8" as="geometry" />
        </mxCell>
        <mxCell id="imZxB08q8311YTtFAsqf-23" style="edgeStyle=orthogonalEdgeStyle;rounded=0;orthogonalLoop=1;jettySize=auto;html=1;entryX=0.525;entryY=0.5;entryDx=0;entryDy=0;entryPerimeter=0;" edge="1" parent="1" source="imZxB08q8311YTtFAsqf-17" target="imZxB08q8311YTtFAsqf-21">
          <mxGeometry relative="1" as="geometry">
            <Array as="points">
              <mxPoint x="100" y="880" />
              <mxPoint x="241" y="880" />
            </Array>
          </mxGeometry>
        </mxCell>
        <mxCell id="imZxB08q8311YTtFAsqf-30" style="edgeStyle=orthogonalEdgeStyle;rounded=0;orthogonalLoop=1;jettySize=auto;html=1;" edge="1" parent="1" source="imZxB08q8311YTtFAsqf-24" target="imZxB08q8311YTtFAsqf-28">
          <mxGeometry relative="1" as="geometry" />
        </mxCell>
        <mxCell id="imZxB08q8311YTtFAsqf-31" value="[car is available]" style="edgeLabel;html=1;align=center;verticalAlign=middle;resizable=0;points=[];" vertex="1" connectable="0" parent="imZxB08q8311YTtFAsqf-30">
          <mxGeometry x="-0.2914" y="-1" relative="1" as="geometry">
            <mxPoint as="offset" />
          </mxGeometry>
        </mxCell>
        <mxCell id="imZxB08q8311YTtFAsqf-32" style="edgeStyle=orthogonalEdgeStyle;rounded=0;orthogonalLoop=1;jettySize=auto;html=1;entryX=1;entryY=0.5;entryDx=0;entryDy=0;" edge="1" parent="1" source="imZxB08q8311YTtFAsqf-24" target="imZxB08q8311YTtFAsqf-19">
          <mxGeometry relative="1" as="geometry">
            <Array as="points">
              <mxPoint x="510" y="700" />
              <mxPoint x="510" y="615" />
            </Array>
          </mxGeometry>
        </mxCell>
        <mxCell id="imZxB08q8311YTtFAsqf-33" value="[car is not available]" style="edgeLabel;html=1;align=center;verticalAlign=middle;resizable=0;points=[];" vertex="1" connectable="0" parent="imZxB08q8311YTtFAsqf-32">
          <mxGeometry x="0.1528" y="-1" relative="1" as="geometry">
            <mxPoint y="-3" as="offset" />
          </mxGeometry>
        </mxCell>
        <mxCell id="imZxB08q8311YTtFAsqf-24" value="" style="rhombus;whiteSpace=wrap;html=1;" vertex="1" parent="1">
          <mxGeometry x="360" y="680" width="40" height="40" as="geometry" />
        </mxCell>
        <mxCell id="imZxB08q8311YTtFAsqf-28" value="confirm car" style="rounded=1;whiteSpace=wrap;html=1;" vertex="1" parent="1">
          <mxGeometry x="310" y="770" width="140" height="60" as="geometry" />
        </mxCell>
        <mxCell id="imZxB08q8311YTtFAsqf-29" style="edgeStyle=orthogonalEdgeStyle;rounded=0;orthogonalLoop=1;jettySize=auto;html=1;entryX=0.511;entryY=0.569;entryDx=0;entryDy=0;entryPerimeter=0;" edge="1" parent="1" source="imZxB08q8311YTtFAsqf-28" target="imZxB08q8311YTtFAsqf-21">
          <mxGeometry relative="1" as="geometry">
            <Array as="points">
              <mxPoint x="380" y="880" />
              <mxPoint x="240" y="880" />
              <mxPoint x="240" y="975" />
            </Array>
          </mxGeometry>
        </mxCell>
        <mxCell id="imZxB08q8311YTtFAsqf-38" style="edgeStyle=orthogonalEdgeStyle;rounded=0;orthogonalLoop=1;jettySize=auto;html=1;entryX=1;entryY=0.5;entryDx=0;entryDy=0;" edge="1" parent="1" source="imZxB08q8311YTtFAsqf-37" target="imZxB08q8311YTtFAsqf-9">
          <mxGeometry relative="1" as="geometry">
            <Array as="points">
              <mxPoint x="600" y="1060" />
              <mxPoint x="600" y="450" />
            </Array>
          </mxGeometry>
        </mxCell>
        <mxCell id="imZxB08q8311YTtFAsqf-39" value="[change reservation]" style="edgeLabel;html=1;align=center;verticalAlign=middle;resizable=0;points=[];" vertex="1" connectable="0" parent="imZxB08q8311YTtFAsqf-38">
          <mxGeometry x="0.0902" relative="1" as="geometry">
            <mxPoint as="offset" />
          </mxGeometry>
        </mxCell>
        <mxCell id="imZxB08q8311YTtFAsqf-41" style="edgeStyle=orthogonalEdgeStyle;rounded=0;orthogonalLoop=1;jettySize=auto;html=1;entryX=0.5;entryY=0;entryDx=0;entryDy=0;entryPerimeter=0;" edge="1" parent="1" source="imZxB08q8311YTtFAsqf-37" target="imZxB08q8311YTtFAsqf-43">
          <mxGeometry relative="1" as="geometry">
            <mxPoint x="240" y="1139.9999999999998" as="targetPoint" />
          </mxGeometry>
        </mxCell>
        <mxCell id="imZxB08q8311YTtFAsqf-42" value="[accept reservation]" style="edgeLabel;html=1;align=center;verticalAlign=middle;resizable=0;points=[];" vertex="1" connectable="0" parent="imZxB08q8311YTtFAsqf-41">
          <mxGeometry x="-0.2425" y="1" relative="1" as="geometry">
            <mxPoint as="offset" />
          </mxGeometry>
        </mxCell>
        <mxCell id="imZxB08q8311YTtFAsqf-37" value="" style="rhombus;whiteSpace=wrap;html=1;" vertex="1" parent="1">
          <mxGeometry x="220" y="1040" width="40" height="40" as="geometry" />
        </mxCell>
        <mxCell id="imZxB08q8311YTtFAsqf-43" value="" style="html=1;shape=mxgraph.sysml.actFinal;strokeWidth=2;verticalLabelPosition=bottom;verticalAlignment=top;" vertex="1" parent="1">
          <mxGeometry x="220" y="1160" width="40" height="40" as="geometry" />
        </mxCell>
        <mxCell id="imZxB08q8311YTtFAsqf-44" value="get reservation as mail" style="html=1;shape=mxgraph.sysml.accEvent;strokeWidth=2;whiteSpace=wrap;align=center;" vertex="1" parent="1">
          <mxGeometry x="380" y="1150" width="180" height="60" as="geometry" />
        </mxCell>
        <mxCell id="imZxB08q8311YTtFAsqf-45" style="edgeStyle=orthogonalEdgeStyle;rounded=0;orthogonalLoop=1;jettySize=auto;html=1;entryX=1;entryY=0.5;entryDx=0;entryDy=0;entryPerimeter=0;" edge="1" parent="1" source="imZxB08q8311YTtFAsqf-44" target="imZxB08q8311YTtFAsqf-43">
          <mxGeometry relative="1" as="geometry" />
        </mxCell>
      </root>
    </mxGraphModel>
  </diagram>
</mxfile>
